<?xml version="1.0" standalone="no"?><!DOCTYPE svg PUBLIC "-//W3C//DTD SVG 1.1//EN" "http://www.w3.org/Graphics/SVG/1.1/DTD/svg11.dtd"><svg t="1715167810598" class="icon" viewBox="0 0 1024 1024" version="1.1" xmlns="http://www.w3.org/2000/svg" p-id="15997" xmlns:xlink="http://www.w3.org/1999/xlink" width="200" height="200"><path d="M849.152 665.429333c62.762667-69.674667 86.826667-138.538667 87.296-139.904a42.410667 42.410667 0 0 0 0-27.008C935.552 495.658667 837.674667 213.333333 512 213.333333c-37.802667 0-72.192 4.138667-104.064 10.837334l75.776 75.776c9.301333-0.554667 18.517333-1.28 28.288-1.28 228.309333 0 316.757333 164.096 338.176 213.333333a369.365333 369.365333 0 0 1-60.544 93.866667l59.52 59.562666zM512 810.666667c78.293333 0 143.146667-16.597333 196.906667-41.429334l156.928 156.928 60.330666-60.330666-768-768-60.330666 60.330666 141.610666 141.610667c-111.530667 83.285333-151.338667 196.906667-151.936 198.698667a42.410667 42.410667 0 0 0 0 27.008C88.448 528.341333 186.325333 810.666667 512 810.666667zM299.989333 360.32l96.938667 96.938667c-22.229333 47.488-14.378667 106.282667 24.533333 145.194666s97.706667 46.805333 145.194667 24.533334l76.842667 76.842666A394.325333 394.325333 0 0 1 512 725.333333c-228.309333 0-316.757333-164.096-338.176-213.333333a366.933333 366.933333 0 0 1 126.165333-151.68z" fill="" p-id="15998"></path></svg>