<?xml version="1.0" standalone="no"?><!DOCTYPE svg PUBLIC "-//W3C//DTD SVG 1.1//EN" "http://www.w3.org/Graphics/SVG/1.1/DTD/svg11.dtd"><svg t="1715167777690" class="icon" viewBox="0 0 1024 1024" version="1.1" xmlns="http://www.w3.org/2000/svg" p-id="14173" xmlns:xlink="http://www.w3.org/1999/xlink" width="200" height="200"><path d="M844.8 474.112h-655.36c-17.408 0-30.72 13.312-30.72 29.696 0 16.384 13.312 29.696 30.72 29.696h655.36c17.408 0 30.72-13.312 30.72-29.696 0-16.384-14.336-29.696-30.72-29.696zM680.96 653.312h-491.52c-17.408 0-30.72 13.312-30.72 29.696 0 16.384 13.312 29.696 30.72 29.696h491.52c17.408 0 30.72-13.312 30.72-29.696 0-16.384-14.336-29.696-30.72-29.696zM189.44 215.04h491.52c17.408 0 30.72-13.312 30.72-29.696 0-16.384-13.312-29.696-30.72-29.696h-491.52c-17.408 0-30.72 13.312-30.72 29.696 0 16.384 13.312 29.696 30.72 29.696zM517.12 812.032h-327.68c-17.408 0-30.72 13.312-30.72 29.696 0 16.384 13.312 29.696 30.72 29.696h327.68c17.408 0 30.72-13.312 30.72-29.696 0-16.384-14.336-29.696-30.72-29.696zM189.44 373.76h327.68c17.408 0 30.72-13.312 30.72-29.696 0-16.384-13.312-29.696-30.72-29.696h-327.68c-17.408 0-30.72 13.312-30.72 29.696 0 16.384 13.312 29.696 30.72 29.696zM748.544 422.912c22.528-12.288 39.936-41.984 43.008-63.488l3.072-197.632H768V317.44c-18.432-12.288-46.08-13.312-70.656 0-34.816 18.432-51.2 56.32-36.864 86.016 13.312 29.696 53.248 37.888 88.064 19.456z" fill="#333333" p-id="14174"></path></svg>